<?xml version="1.0" encoding="utf-8"?>
<!-- Generator: Adobe Illustrator 22.1.0, SVG Export Plug-In . SVG Version: 6.00 Build 0)  -->
<svg version="1.1" id="Capa_1" xmlns="http://www.w3.org/2000/svg" xmlns:xlink="http://www.w3.org/1999/xlink" x="0px" y="0px"
	 viewBox="0 0 200 200" style="enable-background:new 0 0 200 200;" xml:space="preserve">
<style type="text/css">
	.st0{fill:#393737;}
	.st1{fill:#FFFFFF;}
</style>
<path class="st0" d="M174,12H24.8c-7.1,0-12.9,5.6-12.9,12.6v149.8c0,7,5.8,12.6,12.9,12.6H174c7.1,0,12.9-5.7,12.9-12.6V24.6
	C186.9,17.6,181.1,12,174,12z"/>
<path class="st1" d="M37.8,77.6h26v83.5h-26V77.6z M50.8,36.1c8.3,0,15,6.7,15,15.1c0,8.3-6.7,15.1-15,15.1
	c-8.3,0-15.1-6.7-15.1-15.1C35.8,42.8,42.5,36.1,50.8,36.1"/>
<path class="st1" d="M80.1,77.6H105V89h0.4c3.5-6.6,11.9-13.5,24.6-13.5c26.3,0,31.1,17.3,31.1,39.8v45.8h-26v-40.6
	c0-9.7-0.2-22.1-13.5-22.1c-13.5,0-15.6,10.6-15.6,21.5v41.3H80.1V77.6z"/>
</svg>
