<?xml version="1.0" encoding="utf-8"?>
<!-- Generator: Adobe Illustrator 22.1.0, SVG Export Plug-In . SVG Version: 6.00 Build 0)  -->
<svg version="1.1" id="Capa_1" xmlns="http://www.w3.org/2000/svg" xmlns:xlink="http://www.w3.org/1999/xlink" x="0px" y="0px"
	 viewBox="0 0 400 200" style="enable-background:new 0 0 400 200;" xml:space="preserve">
<style type="text/css">
	.st0{fill:#393737;}
	.st1{fill:#B3B3B3;}
	.st2{fill:#A5120D;}
	.st3{fill:#DC1B16;}
	.st4{fill:#FFFFFF;}
	.st5{fill:#B3B2B2;}
</style>
<rect class="st0" width="400" height="200"/>
<polygon class="st1" points="129.1,49.7 200.2,24.9 271.6,49.7 260.3,142.2 200.4,175.4 140.3,142.2 "/>
<polygon class="st2" points="200.2,32.6 200.2,167.2 253.5,137.7 263.7,54.7 "/>
<polygon class="st3" points="200.2,32.6 200.2,167.2 146.9,137.7 136.7,54.7 "/>
<path class="st4" d="M200.2,39.4L200.2,39.4L200.2,39.4L200.2,39.4L200.2,39.4l-43.7,97h16l9.2-21.9c1.4,0,35.3,0,36.8,0l9.2,21.9
	h16L200.2,39.4z M187.3,101.4l12.9-30.6l12.9,30.6C192.7,101.4,198.4,101.4,187.3,101.4z"/>
<path class="st5" d="M200.2,39.4L200.2,39.4L200.2,39.4l0,31.4l12.9,30.6c-6.5,0-10.3,0-12.9,0v13.1c8.8,0,17.6,0,18.4,0l9.2,21.9
	h16L200.2,39.4z"/>
</svg>
