<?xml version="1.0" encoding="utf-8"?>
<!-- Generator: Adobe Illustrator 22.1.0, SVG Export Plug-In . SVG Version: 6.00 Build 0)  -->
<svg version="1.1" id="Capa_1" xmlns="http://www.w3.org/2000/svg" xmlns:xlink="http://www.w3.org/1999/xlink" x="0px" y="0px"
	 viewBox="0 0 50 50" style="enable-background:new 0 0 50 50;" xml:space="preserve">
<style type="text/css">
	.st0{fill:#393737;}
</style>
<path class="st0" d="M18.3,29.2L23.3,15l1.9-5.5h0.4l1.9,5.5l1.6,4.5c0.1,0.4,0.7,0.4,0.8,0l3.2-8.6c0.1-0.4,0.1-0.8,0-1.2l-2-5.4
	c-0.9-2.3-3.1-3.9-5.6-3.9h-0.3c-2.5,0-4.7,1.5-5.6,3.9l-12.4,33c0,0,0,0,0,0l2.8-13.7c0-0.2,0-0.3,0-0.5l-0.4-7.6h0.4l1.1,2.8
	c0.1,0.4,0.7,0.4,0.8,0l2.8-7.3c0.1-0.4,0.1-0.8,0-1.2l-0.7-1.9C13.3,6,11.4,4.5,9.2,4.3C6,4.1,3.3,6.6,3.3,9.8v34.1
	c0,2.5,2,4.5,4.5,4.5h0.4c1.9,0,3.6-1.2,4.3-3l3.3-9.2h0L18.3,29.2L18.3,29.2z"/>
<polygon class="st0" points="17.3,34.4 17.3,34.4 17.3,34.4 "/>
<polygon class="st0" points="34.4,34.4 34.4,34.4 34.4,34.4 "/>
<path class="st0" d="M41.9,4.3L41.9,4.3c-2.2,0-4.2,1.4-5,3.4L25.6,37.5h-0.4l-3.5-9.2c-0.1-0.4-0.7-0.4-0.8,0l-2.7,7.3
	c-0.1,0.4-0.1,0.8,0,1.2l1.5,4l0.5,1.3c0.4,1.2,1.6,2,2.8,2h4.4c1.2,0,2.4-0.8,2.8-1.9v0h0l10.3-26.6h0.4l-0.4,7.7
	c0,0.1,0,0.2,0,0.4l2.7,13.8L39.6,27c-0.1-0.4-0.7-0.4-0.8,0l-3.4,8.8c-0.1,0.4-0.2,0.8,0,1.2l0.5,1.4l0,0l2.5,7
	c0.6,1.8,2.4,3,4.3,3H43c2.5,0,4.5-2,4.5-4.5V9.9C47.5,6.8,45,4.3,41.9,4.3z"/>
</svg>
