<?xml version="1.0" encoding="utf-8"?>
<!-- Generator: Adobe Illustrator 22.1.0, SVG Export Plug-In . SVG Version: 6.00 Build 0)  -->
<svg version="1.1" id="Capa_1" xmlns="http://www.w3.org/2000/svg" xmlns:xlink="http://www.w3.org/1999/xlink" x="0px" y="0px"
	 viewBox="0 0 400 200" style="enable-background:new 0 0 400 200;" xml:space="preserve">
<style type="text/css">
	.st0{fill:#393737;}
	.st1{fill:#31C5F0;}
	.st2{fill:url(#SVGID_1_);}
	.st3{fill:#FF7F18;}
</style>
<rect class="st0" width="400" height="200"/>
<g>
	
		<radialGradient id="SVGID_1_" cx="-1001.2402" cy="-888.6736" r="0.1887" gradientTransform="matrix(545.6736 0 0 528.3113 546526.9375 469559.5)" gradientUnits="userSpaceOnUse">
		<stop  offset="0" style="stop-color:#423325;stop-opacity:0.98"/>
		<stop  offset="1" style="stop-color:#1C0A00"/>
	</radialGradient>
	<path class="st2" d="M131.9,33.6h135.5v131.8H131.9V33.6z"/>
	<path class="st3" d="M131.9,33.6h135.5v131.8H131.9V33.6z M125.8,171.6h147.8V27.5H125.8V171.6z M222.6,78.9c0-0.5,0.2-0.7,0.7-0.7
		h9.7c0.5,0,0.7,0.2,0.7,0.7v48.6c0,0.5-0.1,0.7-0.7,0.7h-9.6c-0.6,0-0.8-0.3-0.8-0.8L222.6,78.9L222.6,78.9L222.6,78.9z
		 M221.9,64.9c0-3.9,2.8-6.3,6.3-6.3c3.8,0,6.3,2.5,6.3,6.3c0,4.1-2.6,6.3-6.4,6.3C224.5,71.2,221.9,69,221.9,64.9z M194.2,99.1
		c-1.7-6.8-5.8-21.7-7.3-29h-0.1c-1.3,7.2-4.6,19.4-7.1,29H194.2L194.2,99.1z M177.1,109.1l-4.9,18.5c-0.1,0.5-0.3,0.6-0.9,0.6h-9.1
		c-0.6,0-0.7-0.2-0.6-0.9l17.5-61.2c0.3-1.1,0.5-2.1,0.6-5.1c0-0.4,0.2-0.6,0.5-0.6h12.9c0.4,0,0.6,0.1,0.7,0.6l19.6,66.5
		c0.1,0.5,0,0.8-0.5,0.8h-10.2c-0.5,0-0.8-0.1-0.9-0.6l-5.1-18.5L177.1,109.1L177.1,109.1z"/>
</g>
</svg>
