<?xml version="1.0" encoding="utf-8"?>
<!-- Generator: Adobe Illustrator 22.1.0, SVG Export Plug-In . SVG Version: 6.00 Build 0)  -->
<svg version="1.1" id="Capa_1" xmlns="http://www.w3.org/2000/svg" xmlns:xlink="http://www.w3.org/1999/xlink" x="0px" y="0px"
	 viewBox="0 0 400 200" style="enable-background:new 0 0 400 200;" xml:space="preserve">
<style type="text/css">
	.st0{fill:#393737;}
	.st1{fill:#31C5F0;}
	.st2{fill:url(#SVGID_1_);}
</style>
<rect class="st0" width="400" height="200"/>
<g>
	
		<radialGradient id="SVGID_1_" cx="-1001.2407" cy="-888.6734" r="0.1891" gradientTransform="matrix(545.6736 0 0 528.3113 546526.9375 469559.5)" gradientUnits="userSpaceOnUse">
		<stop  offset="0" style="stop-color:#34364E;stop-opacity:0.98"/>
		<stop  offset="1" style="stop-color:#0C0824"/>
	</radialGradient>
	<path class="st2" d="M131.6,33.7h135.8v132.1H131.6V33.7z"/>
	<path class="st1" d="M131.6,33.7h135.8v132.1H131.6V33.7z M125.4,171.9h148.1V27.5H125.4V171.9z M225.3,86.8
		c-4.9,0-6.5,2.5-6.5,4.5c0,2.2,1.1,3.8,7.7,7.2c9.7,4.7,12.7,9.2,12.7,15.8c0,9.9-7.5,15.2-17.7,15.2c-5.4,0-10-1.1-12.6-2.6
		c-0.4-0.2-0.5-0.5-0.5-1v-9.1c0-0.6,0.3-0.8,0.7-0.5c3.9,2.5,8.3,3.7,12.4,3.7c4.9,0,6.9-2,6.9-4.8c0-2.2-1.4-4.2-7.7-7.4
		c-8.8-4.2-12.4-8.4-12.4-15.6c0-8,6.2-14.6,17-14.6c5.3,0,9,0.8,11,1.7c0.5,0.3,0.6,0.8,0.6,1.2v8.5c0,0.5-0.3,0.8-0.9,0.6
		C233.3,87.8,229.3,86.8,225.3,86.8L225.3,86.8z M172.3,94.1c1.4,0.1,2.5,0.1,5,0.1c7.2,0,14-2.5,14-12.3c0-7.8-4.9-11.8-13.1-11.8
		c-2.5,0-4.8,0.1-5.9,0.2L172.3,94.1L172.3,94.1z M161.2,61.3c0-0.4,0.9-0.7,1.4-0.7c3.9-0.2,9.8-0.3,15.9-0.3
		c17.1,0,23.8,9.4,23.8,21.3c0,15.7-11.4,22.4-25.3,22.4c-2.3,0-3.1-0.1-4.8-0.1v23.7c0,0.5-0.2,0.7-0.7,0.7H162
		c-0.5,0-0.7-0.2-0.7-0.7V61.3L161.2,61.3z"/>
</g>
</svg>
