<?xml version="1.0" encoding="utf-8"?>
<!-- Generator: Adobe Illustrator 22.1.0, SVG Export Plug-In . SVG Version: 6.00 Build 0)  -->
<svg version="1.1" id="Capa_1" xmlns="http://www.w3.org/2000/svg" xmlns:xlink="http://www.w3.org/1999/xlink" x="0px" y="0px"
	 viewBox="0 0 400 200" style="enable-background:new 0 0 400 200;" xml:space="preserve">
<style type="text/css">
	.st0{fill:#393737;}
	.st1{fill:#53C1DE;}
</style>
<rect class="st0" width="400" height="200"/>
<g>
	<path class="st1" d="M255.6,73.2c-1.8-0.6-3.6-1.2-5.5-1.7c0.3-1.3,0.6-2.5,0.9-3.8c4.2-20.3,1.4-36.7-7.9-42.1
		c-9-5.2-23.6,0.2-38.4,13.1c-1.4,1.2-2.8,2.5-4.3,3.9c-1-0.9-1.9-1.8-2.8-2.6c-15.5-13.8-31.1-19.6-40.4-14.2
		c-9,5.2-11.6,20.6-7.8,39.8c0.4,1.9,0.8,3.8,1.3,5.7c-2.2,0.6-4.3,1.3-6.4,2c-18.2,6.3-29.8,16.3-29.8,26.6
		c0,10.6,12.5,21.3,31.4,27.8c1.5,0.5,3,1,4.6,1.5c-0.5,2.1-1,4.1-1.3,6.1c-3.6,18.9-0.8,33.9,8.1,39.1c9.2,5.3,24.7-0.1,39.8-13.3
		c1.2-1,2.4-2.1,3.6-3.3c1.6,1.5,3.1,2.9,4.6,4.2c14.6,12.6,29,17.6,37.9,12.5c9.2-5.3,12.2-21.5,8.3-41.1c-0.3-1.5-0.6-3-1-4.6
		c1.1-0.3,2.2-0.7,3.2-1c19.7-6.5,32.5-17.1,32.5-27.9C286.1,89.5,274.1,79.5,255.6,73.2z M209.4,44.2c12.7-11,24.5-15.4,29.9-12.3
		c5.8,3.3,8,16.7,4.4,34.2c-0.2,1.1-0.5,2.3-0.8,3.4c-7.1-1.6-14.9-2.9-23-3.6c-4.7-6.7-9.6-12.8-14.5-18.1
		C206.8,46.6,208.1,45.4,209.4,44.2z M169,100.1c2.2-4.6,4.7-9.3,7.3-13.8l0,0c2.7-4.6,5.4-9,8.3-13.3c5.1-0.4,10.3-0.6,15.6-0.6h0
		c5.3,0,10.6,0.2,15.7,0.6c2.8,4.2,5.6,8.6,8.3,13.2c2.7,4.7,5.2,9.3,7.4,13.8c-2.2,4.6-4.7,9.3-7.4,13.9c-2.7,4.7-5.4,9.1-8.2,13.3
		c-5.1,0.4-10.4,0.6-15.7,0.6c-5.3,0-10.5-0.2-15.5-0.5c-2.9-4.2-5.7-8.7-8.4-13.3h0C173.6,109.3,171.2,104.7,169,100.1z
		 M165.1,108.7c1.5,3,3.2,5.9,4.9,8.9h0c1.7,3,3.5,5.9,5.4,8.8c-5.6-0.6-10.9-1.5-15.8-2.5C161,119,162.9,113.9,165.1,108.7z
		 M165.1,91.4c-2.1-5.1-4-10-5.5-14.9c4.9-1.1,10.1-2,15.6-2.7c-1.8,2.8-3.6,5.7-5.3,8.7v0C168.2,85.5,166.6,88.5,165.1,91.4z
		 M230.5,117.5c1.7-3,3.4-6.1,5-9.1c2.3,5.2,4.2,10.3,5.8,15.1c-5,1.1-10.4,2.1-16,2.7C227.1,123.4,228.8,120.5,230.5,117.5z
		 M235.5,91.4c-1.6-3-3.2-5.9-4.9-8.9c-1.7-2.9-3.4-5.8-5.2-8.6c5.5,0.7,10.7,1.6,15.7,2.7C239.5,81.4,237.6,86.4,235.5,91.4z
		 M200.3,53.1c3.4,3.7,6.8,7.8,10.1,12.2c-3.4-0.2-6.8-0.2-10.2-0.2c-3.4,0-6.8,0.1-10.1,0.2C193.4,60.9,196.9,56.8,200.3,53.1z
		 M160.7,32.2c5.7-3.3,18.4,1.4,31.8,13.3c0.9,0.8,1.7,1.6,2.6,2.4c-5,5.4-9.9,11.5-14.6,18.1c-8.1,0.7-15.8,2-22.9,3.6
		c-0.4-1.8-0.8-3.6-1.2-5.3C153.2,47.7,155.4,35.3,160.7,32.2z M152.4,122.1c-1.5-0.4-2.9-0.9-4.2-1.3c-8.4-2.9-15.3-6.6-20-10.6
		c-4.3-3.6-6.4-7.3-6.4-10.2c0-6.3,9.3-14.2,24.9-19.7c1.9-0.7,3.9-1.3,5.9-1.9c2.1,7,5,14.3,8.4,21.7
		C157.4,107.6,154.5,115,152.4,122.1z M192.1,155.5c-6.7,5.8-13.3,10-19.2,12c-5.3,1.9-9.5,1.9-12,0.5c-5.4-3.1-7.7-15.2-4.6-31.4
		c0.4-1.9,0.8-3.8,1.3-5.7c7,1.6,14.8,2.7,23.1,3.3c4.8,6.7,9.7,12.8,14.7,18.2C194.3,153.5,193.2,154.6,192.1,155.5z M200.5,147.2
		c-3.5-3.8-6.9-7.9-10.3-12.4c3.3,0.1,6.6,0.2,10,0.2c3.5,0,7-0.1,10.4-0.2C207.2,139.4,203.9,143.5,200.5,147.2z M245.1,157.4
		c-1,5.5-3.1,9.2-5.6,10.7c-5.4,3.1-17-0.9-29.5-11.7c-1.4-1.2-2.9-2.5-4.3-3.9c4.8-5.3,9.7-11.4,14.4-18.3
		c8.3-0.7,16.1-1.9,23.3-3.6c0.4,1.4,0.7,2.8,0.9,4.2C245.9,143.4,246.2,151.3,245.1,157.4z M251.3,120.8c-0.9,0.3-1.9,0.6-2.9,0.9
		c-2.2-6.9-5.1-14.2-8.7-21.8c3.4-7.4,6.2-14.6,8.4-21.4c1.8,0.5,3.5,1,5.1,1.6c15.9,5.5,25.6,13.6,25.6,19.8
		C278.7,106.5,268.3,115.1,251.3,120.8z"/>
	<path class="st1" d="M200.2,84.6c8.5,0,15.3,6.9,15.3,15.3c0,8.5-6.9,15.3-15.3,15.3c-8.5,0-15.3-6.9-15.3-15.3
		C184.9,91.4,191.8,84.6,200.2,84.6"/>
</g>
</svg>
