<?xml version="1.0" encoding="utf-8"?>
<!-- Generator: Adobe Illustrator 22.1.0, SVG Export Plug-In . SVG Version: 6.00 Build 0)  -->
<svg version="1.1" id="Capa_1" xmlns="http://www.w3.org/2000/svg" xmlns:xlink="http://www.w3.org/1999/xlink" x="0px" y="0px"
	 viewBox="0 0 400 200" style="enable-background:new 0 0 400 200;" xml:space="preserve">
<style type="text/css">
	.st0{fill:#393737;}
	.st1{fill:#C54E2D;}
	.st2{fill:#D36531;}
	.st3{fill:#E9E9E9;}
	.st4{fill:#FFFFFF;}
</style>
<rect class="st0" width="400" height="200"/>
<polygon class="st1" points="145.9,160.1 133.9,25.2 266.1,25.2 254.1,160.1 199.9,175.1 "/>
<polygon class="st2" points="200,163.6 243.8,151.5 254.1,36.2 200,36.2 "/>
<polygon class="st3" points="200,86.2 178.1,86.2 176.6,69.3 200,69.3 200,52.7 199.9,52.7 158.5,52.7 158.9,57.2 163,102.8 
	200,102.8 "/>
<polygon class="st3" points="200,129.2 199.9,129.3 181.5,124.3 180.3,111.1 171.4,111.1 163.7,111.1 166,137.1 199.9,146.5 
	200,146.5 "/>
<polygon class="st4" points="199.9,86.2 199.9,102.8 220.3,102.8 218.4,124.3 199.9,129.3 199.9,146.5 233.9,137.1 234.1,134.3 
	238,90.7 238.4,86.2 234,86.2 "/>
<polygon class="st4" points="199.9,52.7 199.9,63 199.9,69.3 199.9,69.3 239.9,69.3 239.9,69.3 239.9,69.3 240.3,65.6 241,57.2 
	241.4,52.7 "/>
</svg>
