<?xml version="1.0" encoding="utf-8"?>
<!-- Generator: Adobe Illustrator 22.1.0, SVG Export Plug-In . SVG Version: 6.00 Build 0)  -->
<svg version="1.1" id="Capa_1" xmlns="http://www.w3.org/2000/svg" xmlns:xlink="http://www.w3.org/1999/xlink" x="0px" y="0px"
	 viewBox="0 0 400 200" style="enable-background:new 0 0 400 200;" xml:space="preserve">
<style type="text/css">
	.st0{fill:#393737;}
	.st1{fill:#31C5F0;}
	.st2{fill:#F7DF1E;}
</style>
<rect class="st0" width="400" height="200"/>
<path class="st2" d="M127,27H273v145H127V27z"/>
<path d="M165.4,150l11.2-6.8c2.2,3.8,4.1,7.1,8.8,7.1c4.5,0,7.3-1.8,7.3-8.6V95h13.7v46.8c0,14.2-8.3,20.7-20.5,20.7
	C175,162.5,168.6,156.8,165.4,150"/>
<path d="M213.9,148.5l11.2-6.5c2.9,4.8,6.8,8.3,13.5,8.3c5.7,0,9.3-2.8,9.3-6.8c0-4.7-3.7-6.4-10-9.1l-3.4-1.5
	c-9.9-4.2-16.5-9.5-16.5-20.7c0-10.3,7.8-18.1,20.1-18.1c8.7,0,15,3,19.5,11l-10.7,6.9c-2.4-4.2-4.9-5.9-8.8-5.9
	c-4,0-6.6,2.5-6.6,5.9c0,4.1,2.5,5.8,8.4,8.3l3.4,1.5c11.7,5,18.2,10.1,18.2,21.5c0,12.3-9.7,19.1-22.7,19.1
	C226.1,162.5,217.9,156.4,213.9,148.5"/>
</svg>
